<?xml version="1.0" standalone="no"?>
<!DOCTYPE svg PUBLIC "-//W3C//DTD SVG 20010904//EN"
 "http://www.w3.org/TR/2001/REC-SVG-20010904/DTD/svg10.dtd">
<svg version="1.0" xmlns="http://www.w3.org/2000/svg"
 width="1280.000000pt" height="485.000000pt" viewBox="0 0 1280.000000 485.000000"
 preserveAspectRatio="xMidYMid meet">
<metadata>
Created by potrace 1.15, written by Peter Selinger 2001-2017
</metadata>
<g transform="translate(0.000000,485.000000) scale(0.100000,-0.100000)"
fill="#000000" stroke="none">
<path d="M5792 4563 c-7 -3 -42 -39 -77 -80 -48 -56 -72 -95 -95 -156 -17 -45
-39 -91 -49 -102 -21 -23 -90 -137 -149 -245 -35 -65 -98 -221 -115 -285 -41
-150 -47 -165 -85 -184 -28 -14 -43 -16 -62 -9 -14 5 -46 7 -71 4 -35 -5 -49
-3 -59 9 -16 19 -46 19 -53 1 -8 -21 -144 -10 -170 13 -17 14 -20 14 -36 -7
-15 -20 -20 -21 -50 -11 -19 7 -56 9 -91 6 -52 -6 -58 -4 -63 13 -6 22 -37 28
-37 7 0 -16 -186 -15 -203 2 -15 15 -28 14 -41 -5 -11 -14 -18 -14 -55 -3 -34
10 -49 10 -77 0 -36 -13 -54 -8 -54 15 0 16 -36 20 -42 4 -2 -6 -40 -12 -85
-14 -63 -2 -83 0 -87 11 -5 11 -10 11 -27 3 -33 -18 -196 -21 -203 -4 -7 17
-33 18 -38 2 -5 -15 -186 -20 -205 -6 -7 6 -19 6 -30 0 -10 -5 -46 -12 -79
-15 -48 -5 -65 -3 -74 9 -11 12 -15 13 -29 0 -10 -8 -48 -15 -98 -18 -71 -4
-84 -2 -98 15 -14 17 -18 17 -33 4 -23 -20 -160 -31 -179 -15 -11 9 -20 8 -43
-5 -19 -11 -59 -19 -122 -22 -51 -2 -122 -9 -158 -14 -36 -5 -75 -7 -88 -4
-12 3 -28 1 -35 -5 -41 -34 -117 -44 -722 -92 -341 -28 -722 -59 -847 -69
-224 -19 -227 -19 -266 0 -72 36 -113 0 -135 -116 l-12 -67 -50 -19 c-107 -40
-162 -132 -200 -334 -13 -70 -14 -99 -5 -157 20 -132 74 -260 132 -315 66 -62
107 -83 164 -83 l54 0 35 -75 c41 -86 69 -110 115 -100 23 5 35 15 42 35 7 23
17 30 50 35 22 4 43 3 47 -1 4 -5 18 -65 30 -134 80 -439 195 -741 370 -974
146 -194 270 -298 502 -420 254 -134 512 -193 943 -217 316 -17 1239 -7 1416
15 168 21 334 57 470 102 330 110 605 346 726 624 36 83 124 432 204 810 29
135 55 248 59 252 3 4 65 1 136 -8 72 -8 157 -14 190 -15 111 0 1785 -175
1860 -194 11 -3 297 -36 635 -75 338 -39 824 -95 1080 -125 969 -114 1770
-193 2755 -270 248 -19 480 -38 516 -41 l66 -7 6 333 c4 183 7 418 7 521 l0
188 -32 5 c-18 3 -89 10 -158 16 -69 6 -285 29 -480 50 -195 22 -553 60 -795
85 -858 89 -1107 116 -1700 190 -797 99 -1344 164 -1430 170 -38 3 -207 23
-375 45 -168 22 -458 58 -645 80 -455 54 -713 87 -870 110 -71 10 -204 28
-295 39 -240 30 -242 31 -236 48 6 15 17 157 36 483 16 255 45 504 68 570 11
30 31 75 46 100 14 25 26 53 26 63 0 26 -53 44 -88 30z m-3000 -2138 c44 0 60
-4 71 -19 15 -21 37 -14 37 11 0 12 6 14 28 8 57 -15 113 -17 127 -5 16 13 35
5 35 -15 0 -25 22 -28 40 -5 16 22 18 22 43 5 22 -14 32 -15 63 -5 34 12 38
11 56 -11 17 -23 19 -23 32 -6 7 9 21 17 30 17 15 0 52 -15 65 -26 2 -2 -32
-45 -76 -96 -185 -217 -570 -753 -763 -1064 -177 -285 -296 -414 -382 -414
-44 0 -292 71 -363 104 -86 40 -200 116 -273 181 -59 53 -163 184 -205 257
-105 183 -178 449 -203 742 -6 78 -6 78 22 102 16 13 35 23 42 24 7 0 40 9 73
20 46 16 64 18 75 10 15 -13 34 -5 34 13 0 7 27 20 60 31 51 16 63 16 76 5 15
-12 19 -11 32 9 8 12 25 22 38 22 12 0 34 4 49 10 18 7 32 6 46 -3 17 -10 22
-9 30 6 7 11 22 17 49 17 21 0 50 5 64 11 20 9 29 9 41 -1 13 -10 18 -10 33 2
21 19 128 32 137 17 9 -14 30 -6 30 12 0 11 13 13 53 11 29 -2 67 2 83 8 26
11 31 10 43 -6 13 -17 16 -18 33 -2 12 10 29 14 51 11 18 -3 46 1 63 8 28 11
33 10 44 -4 14 -20 32 -22 37 -6 6 18 149 18 170 1 14 -12 18 -11 28 8 8 16
16 19 28 13 9 -4 43 -8 74 -8z m1194 -120 c18 -9 42 -12 65 -9 31 5 37 3 42
-16 5 -18 10 -21 29 -15 13 4 31 6 41 5 9 -1 40 -2 67 -3 37 -2 52 -6 56 -19
7 -23 31 -30 54 -16 16 10 25 9 51 -6 20 -12 41 -16 60 -12 25 5 35 1 53 -21
21 -24 26 -26 40 -14 13 11 22 11 42 2 14 -6 39 -11 56 -11 19 0 41 -9 55 -21
17 -17 26 -19 36 -11 9 8 23 7 52 -3 22 -8 47 -14 56 -15 9 0 19 -7 22 -15 8
-18 179 -14 202 5 9 7 18 11 20 8 11 -11 28 -159 19 -168 -5 -5 -97 -25 -204
-44 -582 -104 -1054 -288 -1561 -608 -72 -46 -172 -109 -222 -141 -103 -65
-318 -177 -342 -177 -11 0 0 25 36 82 121 194 270 386 594 763 170 198 453
485 478 485 7 0 19 -6 26 -12 10 -11 14 -10 22 5 12 21 19 21 55 2z m1112
-794 c4 -77 -15 -185 -44 -247 -31 -65 -145 -190 -228 -248 -155 -110 -369
-180 -631 -206 -108 -10 -1215 -20 -1215 -10 0 8 408 230 568 310 503 250 818
365 1153 424 183 32 196 33 304 32 l90 -1 3 -54z"/>
</g>
</svg>
