<?xml version="1.0" standalone="no"?>
<!DOCTYPE svg PUBLIC "-//W3C//DTD SVG 20010904//EN"
 "http://www.w3.org/TR/2001/REC-SVG-20010904/DTD/svg10.dtd">
<svg version="1.0" xmlns="http://www.w3.org/2000/svg"
 width="1280.000000pt" height="640.000000pt" viewBox="0 0 1280.000000 640.000000"
 preserveAspectRatio="xMidYMid meet">
<metadata>
Created by potrace 1.15, written by Peter Selinger 2001-2017
</metadata>
<g transform="translate(0.000000,640.000000) scale(0.100000,-0.100000)"
fill="#000000" stroke="none">
<path d="M12589 6315 c-37 -35 -98 -82 -137 -104 -78 -47 -211 -95 -287 -105
-27 -3 -464 -15 -970 -26 -886 -19 -1323 -29 -2290 -50 -908 -20 -1390 -31
-2290 -50 -506 -11 -1122 -24 -1370 -30 -247 -5 -670 -14 -940 -20 -629 -12
-720 -17 -835 -40 -405 -82 -651 -377 -710 -853 l-13 -98 -29 35 c-108 131
-324 175 -480 98 -79 -39 -159 -120 -196 -199 -24 -52 -27 -69 -27 -168 0
-100 2 -115 28 -167 88 -179 281 -272 467 -224 35 9 83 27 105 40 47 28 132
111 141 138 3 10 8 18 12 18 4 0 19 -48 33 -108 52 -215 146 -397 269 -522 41
-42 90 -87 108 -101 l33 -24 -694 -1128 c-382 -620 -696 -1130 -699 -1132 -2
-3 -162 -20 -354 -40 -192 -19 -368 -37 -391 -40 l-43 -6 0 132 0 132 -62 -6
c-35 -4 -265 -21 -513 -38 -247 -17 -451 -32 -453 -34 -2 -2 24 -346 88 -1144
10 -134 21 -246 24 -249 6 -6 -6 -7 1176 138 454 56 924 113 1044 128 l220 27
595 982 c643 1060 607 1008 610 879 3 -137 62 -427 123 -610 272 -818 953
-1448 1788 -1656 476 -118 989 -95 1450 65 649 226 1193 727 1477 1360 148
329 216 652 216 1030 0 227 -14 358 -60 565 -81 364 -280 773 -503 1032 -39
46 -40 48 -18 53 13 2 325 43 693 90 369 47 756 97 860 110 195 25 1416 182
1835 236 129 16 323 41 430 55 214 28 278 27 401 -7 96 -26 192 -77 275 -143
38 -30 70 -54 71 -52 1 1 -18 276 -42 611 -74 1006 -94 1278 -97 1281 -2 1
-33 -26 -69 -61z m-5264 -2272 c22 -14 63 -44 90 -67 28 -22 51 -40 52 -41 1
-1 -183 -186 -409 -412 l-411 -412 -51 26 c-28 14 -73 34 -101 43 l-50 17 -3
382 c-2 300 0 383 10 386 18 7 755 103 798 104 23 1 49 -8 75 -26z m-1135
-473 l0 -359 -42 -11 c-24 -5 -75 -23 -115 -39 l-71 -28 -342 342 -342 342 98
13 c55 6 245 31 424 55 179 23 340 43 358 44 l32 1 0 -360z m-825 -200 c353
-353 398 -402 388 -417 -33 -47 -85 -145 -99 -187 l-16 -46 -584 0 c-559 0
-584 1 -584 18 0 38 41 241 65 325 53 181 157 394 268 547 70 96 128 160 145
160 10 0 197 -180 417 -400z m2343 315 c203 -252 349 -597 386 -913 l7 -52
-587 2 -587 3 -18 53 c-10 28 -30 75 -45 103 l-28 50 410 410 c225 225 409
409 410 409 0 0 24 -29 52 -65z m-2083 -1242 c18 -85 31 -125 61 -189 l33 -71
-405 -404 c-222 -222 -408 -405 -413 -407 -11 -4 -67 66 -135 167 -121 180
-222 421 -265 631 -21 101 -42 280 -34 293 2 4 263 7 578 7 l575 0 5 -27z
m2477 -33 c-14 -249 -110 -557 -241 -778 -62 -103 -154 -232 -163 -229 -4 1
-192 186 -418 412 l-411 410 25 56 c14 30 31 80 37 110 6 30 13 60 15 67 3 10
124 12 581 10 l578 -3 -3 -55z m-584 -1202 c-6 -17 -130 -115 -228 -180 -229
-153 -511 -256 -797 -293 l-53 -7 0 584 0 585 43 13 c50 15 139 59 187 94 l35
25 408 -407 c224 -224 406 -410 405 -414z m-1477 719 c36 -14 84 -29 107 -33
l42 -7 0 -578 0 -579 -44 0 c-103 0 -326 48 -491 106 -160 56 -378 180 -517
293 l-56 46 410 412 411 411 36 -22 c20 -13 66 -35 102 -49z"/>
</g>
</svg>
